<svg width="240" height="249" viewBox="0 0 240 249" fill="none" xmlns="http://www.w3.org/2000/svg">
<rect width="240" height="249" fill="#50CCA1"/>
<path d="M150.083 134.417C150.083 135.964 149.469 137.447 148.375 138.541C147.281 139.635 145.797 140.25 144.25 140.25H91.7498C90.2027 140.25 88.719 139.635 87.625 138.541C86.5311 137.447 85.9165 135.964 85.9165 134.417V102.333C85.9165 100.786 86.5311 99.3025 87.625 98.2085C88.719 97.1146 90.2027 96.5 91.7498 96.5H103.417L109.25 87.75H126.75L132.583 96.5H144.25C145.797 96.5 147.281 97.1146 148.375 98.2085C149.469 99.3025 150.083 100.786 150.083 102.333V134.417Z" stroke="white" stroke-width="2" stroke-linecap="round" stroke-linejoin="round"/>
<path d="M118 128.583C124.443 128.583 129.667 123.36 129.667 116.917C129.667 110.473 124.443 105.25 118 105.25C111.557 105.25 106.333 110.473 106.333 116.917C106.333 123.36 111.557 128.583 118 128.583Z" stroke="white" stroke-width="2" stroke-linecap="round" stroke-linejoin="round"/>
<path d="M21.2383 215.32V222H18.9883V204.938H25.2812C27.1484 204.938 28.6094 205.414 29.6641 206.367C30.7266 207.32 31.2578 208.582 31.2578 210.152C31.2578 211.809 30.7383 213.086 29.6992 213.984C28.668 214.875 27.1875 215.32 25.2578 215.32H21.2383ZM21.2383 213.48H25.2812C26.4844 213.48 27.4062 213.199 28.0469 212.637C28.6875 212.066 29.0078 211.246 29.0078 210.176C29.0078 209.16 28.6875 208.348 28.0469 207.738C27.4062 207.129 26.5273 206.812 25.4102 206.789H21.2383V213.48ZM39.918 211.266C39.5898 211.211 39.2344 211.184 38.8516 211.184C37.4297 211.184 36.4648 211.789 35.957 213V222H33.7891V209.32H35.8984L35.9336 210.785C36.6445 209.652 37.6523 209.086 38.957 209.086C39.3789 209.086 39.6992 209.141 39.918 209.25V211.266ZM46.9492 222.234C45.2305 222.234 43.832 221.672 42.7539 220.547C41.6758 219.414 41.1367 217.902 41.1367 216.012V215.613C41.1367 214.355 41.375 213.234 41.8516 212.25C42.3359 211.258 43.0078 210.484 43.8672 209.93C44.7344 209.367 45.6719 209.086 46.6797 209.086C48.3281 209.086 49.6094 209.629 50.5234 210.715C51.4375 211.801 51.8945 213.355 51.8945 215.379V216.281H43.3047C43.3359 217.531 43.6992 218.543 44.3945 219.316C45.0977 220.082 45.9883 220.465 47.0664 220.465C47.832 220.465 48.4805 220.309 49.0117 219.996C49.543 219.684 50.0078 219.27 50.4062 218.754L51.7305 219.785C50.668 221.418 49.0742 222.234 46.9492 222.234ZM46.6797 210.867C45.8047 210.867 45.0703 211.188 44.4766 211.828C43.8828 212.461 43.5156 213.352 43.375 214.5H49.7266V214.336C49.6641 213.234 49.3672 212.383 48.8359 211.781C48.3047 211.172 47.5859 210.867 46.6797 210.867ZM56.4648 209.32L56.5352 210.914C57.5039 209.695 58.7695 209.086 60.332 209.086C63.0117 209.086 64.3633 210.598 64.3867 213.621V222H62.2188V213.609C62.2109 212.695 62 212.02 61.5859 211.582C61.1797 211.145 60.543 210.926 59.6758 210.926C58.9727 210.926 58.3555 211.113 57.8242 211.488C57.293 211.863 56.8789 212.355 56.582 212.965V222H54.4141V209.32H56.4648ZM67.1289 215.555C67.1289 213.609 67.5898 212.047 68.5117 210.867C69.4336 209.68 70.6406 209.086 72.1328 209.086C73.6172 209.086 74.793 209.594 75.6602 210.609V204H77.8281V222H75.8359L75.7305 220.641C74.8633 221.703 73.6562 222.234 72.1094 222.234C70.6406 222.234 69.4414 221.633 68.5117 220.43C67.5898 219.227 67.1289 217.656 67.1289 215.719V215.555ZM69.2969 215.801C69.2969 217.238 69.5938 218.363 70.1875 219.176C70.7812 219.988 71.6016 220.395 72.6484 220.395C74.0234 220.395 75.0273 219.777 75.6602 218.543V212.719C75.0117 211.523 74.0156 210.926 72.6719 210.926C71.6094 210.926 70.7812 211.336 70.1875 212.156C69.5938 212.977 69.2969 214.191 69.2969 215.801ZM87.332 211.266C87.0039 211.211 86.6484 211.184 86.2656 211.184C84.8438 211.184 83.8789 211.789 83.3711 213V222H81.2031V209.32H83.3125L83.3477 210.785C84.0586 209.652 85.0664 209.086 86.3711 209.086C86.793 209.086 87.1133 209.141 87.332 209.25V211.266ZM94.3633 222.234C92.6445 222.234 91.2461 221.672 90.168 220.547C89.0898 219.414 88.5508 217.902 88.5508 216.012V215.613C88.5508 214.355 88.7891 213.234 89.2656 212.25C89.75 211.258 90.4219 210.484 91.2812 209.93C92.1484 209.367 93.0859 209.086 94.0938 209.086C95.7422 209.086 97.0234 209.629 97.9375 210.715C98.8516 211.801 99.3086 213.355 99.3086 215.379V216.281H90.7188C90.75 217.531 91.1133 218.543 91.8086 219.316C92.5117 220.082 93.4023 220.465 94.4805 220.465C95.2461 220.465 95.8945 220.309 96.4258 219.996C96.957 219.684 97.4219 219.27 97.8203 218.754L99.1445 219.785C98.082 221.418 96.4883 222.234 94.3633 222.234ZM94.0938 210.867C93.2188 210.867 92.4844 211.188 91.8906 211.828C91.2969 212.461 90.9297 213.352 90.7891 214.5H97.1406V214.336C97.0781 213.234 96.7812 212.383 96.25 211.781C95.7188 211.172 95 210.867 94.0938 210.867ZM115.609 220.746C114.766 221.738 113.527 222.234 111.895 222.234C110.543 222.234 109.512 221.844 108.801 221.062C108.098 220.273 107.742 219.109 107.734 217.57V209.32H109.902V217.512C109.902 219.434 110.684 220.395 112.246 220.395C113.902 220.395 115.004 219.777 115.551 218.543V209.32H117.719V222H115.656L115.609 220.746ZM123.074 209.32L123.145 210.914C124.113 209.695 125.379 209.086 126.941 209.086C129.621 209.086 130.973 210.598 130.996 213.621V222H128.828V213.609C128.82 212.695 128.609 212.02 128.195 211.582C127.789 211.145 127.152 210.926 126.285 210.926C125.582 210.926 124.965 211.113 124.434 211.488C123.902 211.863 123.488 212.355 123.191 212.965V222H121.023V209.32H123.074ZM139.527 222.234C137.809 222.234 136.41 221.672 135.332 220.547C134.254 219.414 133.715 217.902 133.715 216.012V215.613C133.715 214.355 133.953 213.234 134.43 212.25C134.914 211.258 135.586 210.484 136.445 209.93C137.312 209.367 138.25 209.086 139.258 209.086C140.906 209.086 142.188 209.629 143.102 210.715C144.016 211.801 144.473 213.355 144.473 215.379V216.281H135.883C135.914 217.531 136.277 218.543 136.973 219.316C137.676 220.082 138.566 220.465 139.645 220.465C140.41 220.465 141.059 220.309 141.59 219.996C142.121 219.684 142.586 219.27 142.984 218.754L144.309 219.785C143.246 221.418 141.652 222.234 139.527 222.234ZM139.258 210.867C138.383 210.867 137.648 211.188 137.055 211.828C136.461 212.461 136.094 213.352 135.953 214.5H142.305V214.336C142.242 213.234 141.945 212.383 141.414 211.781C140.883 211.172 140.164 210.867 139.258 210.867ZM163.656 215.801C163.656 217.73 163.215 219.285 162.332 220.465C161.449 221.645 160.254 222.234 158.746 222.234C157.207 222.234 155.996 221.746 155.113 220.77V226.875H152.945V209.32H154.926L155.031 210.727C155.914 209.633 157.141 209.086 158.711 209.086C160.234 209.086 161.438 209.66 162.32 210.809C163.211 211.957 163.656 213.555 163.656 215.602V215.801ZM161.488 215.555C161.488 214.125 161.184 212.996 160.574 212.168C159.965 211.34 159.129 210.926 158.066 210.926C156.754 210.926 155.77 211.508 155.113 212.672V218.73C155.762 219.887 156.754 220.465 158.09 220.465C159.129 220.465 159.953 220.055 160.562 219.234C161.18 218.406 161.488 217.18 161.488 215.555ZM168.59 210.855C169.551 209.676 170.801 209.086 172.34 209.086C175.02 209.086 176.371 210.598 176.395 213.621V222H174.227V213.609C174.219 212.695 174.008 212.02 173.594 211.582C173.188 211.145 172.551 210.926 171.684 210.926C170.98 210.926 170.363 211.113 169.832 211.488C169.301 211.863 168.887 212.355 168.59 212.965V222H166.422V204H168.59V210.855ZM179.066 215.543C179.066 214.301 179.309 213.184 179.793 212.191C180.285 211.199 180.965 210.434 181.832 209.895C182.707 209.355 183.703 209.086 184.82 209.086C186.547 209.086 187.941 209.684 189.004 210.879C190.074 212.074 190.609 213.664 190.609 215.648V215.801C190.609 217.035 190.371 218.145 189.895 219.129C189.426 220.105 188.75 220.867 187.867 221.414C186.992 221.961 185.984 222.234 184.844 222.234C183.125 222.234 181.73 221.637 180.66 220.441C179.598 219.246 179.066 217.664 179.066 215.695V215.543ZM181.246 215.801C181.246 217.207 181.57 218.336 182.219 219.188C182.875 220.039 183.75 220.465 184.844 220.465C185.945 220.465 186.82 220.035 187.469 219.176C188.117 218.309 188.441 217.098 188.441 215.543C188.441 214.152 188.109 213.027 187.445 212.168C186.789 211.301 185.914 210.867 184.82 210.867C183.75 210.867 182.887 211.293 182.23 212.145C181.574 212.996 181.246 214.215 181.246 215.801ZM196.27 206.25V209.32H198.637V210.996H196.27V218.859C196.27 219.367 196.375 219.75 196.586 220.008C196.797 220.258 197.156 220.383 197.664 220.383C197.914 220.383 198.258 220.336 198.695 220.242V222C198.125 222.156 197.57 222.234 197.031 222.234C196.062 222.234 195.332 221.941 194.84 221.355C194.348 220.77 194.102 219.938 194.102 218.859V210.996H191.793V209.32H194.102V206.25H196.27ZM200.371 215.543C200.371 214.301 200.613 213.184 201.098 212.191C201.59 211.199 202.27 210.434 203.137 209.895C204.012 209.355 205.008 209.086 206.125 209.086C207.852 209.086 209.246 209.684 210.309 210.879C211.379 212.074 211.914 213.664 211.914 215.648V215.801C211.914 217.035 211.676 218.145 211.199 219.129C210.73 220.105 210.055 220.867 209.172 221.414C208.297 221.961 207.289 222.234 206.148 222.234C204.43 222.234 203.035 221.637 201.965 220.441C200.902 219.246 200.371 217.664 200.371 215.695V215.543ZM202.551 215.801C202.551 217.207 202.875 218.336 203.523 219.188C204.18 220.039 205.055 220.465 206.148 220.465C207.25 220.465 208.125 220.035 208.773 219.176C209.422 218.309 209.746 217.098 209.746 215.543C209.746 214.152 209.414 213.027 208.75 212.168C208.094 211.301 207.219 210.867 206.125 210.867C205.055 210.867 204.191 211.293 203.535 212.145C202.879 212.996 202.551 214.215 202.551 215.801Z" fill="white"/>
</svg>
