<svg width="24" height="24" viewBox="0 0 24 24" fill="none" xmlns="http://www.w3.org/2000/svg">
<path d="M14.4375 9H12.5625C12.2344 9 12 9.28125 12 9.5625V11.4375C12 11.7656 12.2344 12 12.5625 12H14.4375C14.7188 12 15 11.7656 15 11.4375V9.5625C15 9.28125 14.7188 9 14.4375 9ZM14.4375 13.5H12.5625C12.2344 13.5 12 13.7812 12 14.0625V15.9375C12 16.2656 12.2344 16.5 12.5625 16.5H14.4375C14.7188 16.5 15 16.2656 15 15.9375V14.0625C15 13.7812 14.7188 13.5 14.4375 13.5ZM6.9375 10.5H5.0625C4.73438 10.5 4.5 10.7812 4.5 11.0625V12.9375C4.5 13.2656 4.73438 13.5 5.0625 13.5H6.9375C7.21875 13.5 7.5 13.2656 7.5 12.9375V11.0625C7.5 10.7812 7.21875 10.5 6.9375 10.5ZM14.4375 4.5H12.5625C12.2344 4.5 12 4.78125 12 5.0625V6.9375C12 7.26562 12.2344 7.5 12.5625 7.5H14.4375C14.7188 7.5 15 7.26562 15 6.9375V5.0625C15 4.78125 14.7188 4.5 14.4375 4.5ZM6.9375 15H5.0625C4.73438 15 4.5 15.2812 4.5 15.5625V17.4375C4.5 17.7656 4.73438 18 5.0625 18H6.9375C7.21875 18 7.5 17.7656 7.5 17.4375V15.5625C7.5 15.2812 7.21875 15 6.9375 15ZM18.9375 4.5H17.0625C16.7344 4.5 16.5 4.78125 16.5 5.0625V6.9375C16.5 7.26562 16.7344 7.5 17.0625 7.5H18.9375C19.2188 7.5 19.5 7.26562 19.5 6.9375V5.0625C19.5 4.78125 19.2188 4.5 18.9375 4.5ZM21 0H10.5C8.8125 0 7.5 1.35938 7.5 3V6H3C1.3125 6 0 7.35938 0 9V22.875C0 23.5312 0.46875 24 1.125 24C1.73438 24 2.25 23.5312 2.25 22.875V9C2.25 8.625 2.57812 8.25 3 8.25H9.75V3C9.75 2.625 10.0781 2.25 10.5 2.25H21C21.375 2.25 21.75 2.625 21.75 3V22.875C21.75 23.5312 22.2188 24 22.875 24C23.4844 24 24 23.5312 24 22.875V3C24 1.35938 22.6406 0 21 0ZM18.9375 9H17.0625C16.7344 9 16.5 9.28125 16.5 9.5625V11.4375C16.5 11.7656 16.7344 12 17.0625 12H18.9375C19.2188 12 19.5 11.7656 19.5 11.4375V9.5625C19.5 9.28125 19.2188 9 18.9375 9ZM18.9375 13.5H17.0625C16.7344 13.5 16.5 13.7812 16.5 14.0625V15.9375C16.5 16.2656 16.7344 16.5 17.0625 16.5H18.9375C19.2188 16.5 19.5 16.2656 19.5 15.9375V14.0625C19.5 13.7812 19.2188 13.5 18.9375 13.5Z" fill="white"/>
</svg>
