<svg width="25" height="24" viewBox="0 0 25 24" fill="none" xmlns="http://www.w3.org/2000/svg">
<path d="M19.75 21C19.75 21.4219 19.375 21.75 19 21.75H7C6.57812 21.75 6.25 21.4219 6.25 21V18H4V21C4 22.6875 5.3125 24 7 24H19C20.6406 24 22 22.6875 22 21V18H19.75V21ZM20.5 1.5C19.5156 1.54688 18.5312 1.82812 17.7812 2.4375C16.6562 0.984375 14.9219 0 13 0C10.9844 0 9.29688 0.984375 8.17188 2.4375C7.375 1.82812 6.4375 1.5 5.45312 1.5C4.79688 1.5 4.09375 1.6875 3.48438 1.96875C1.9375 2.76562 0.953125 4.3125 1 6C1 7.96875 4 16.5 4 16.5H22C22 16.5 25 7.96875 25 6C25 3.51562 22.9844 1.5 20.5 1.5ZM20.4531 14.25H18.4844L19.6562 7.64062C19.75 7.21875 19.4688 6.84375 19.0469 6.79688C18.6719 6.70312 18.25 6.98438 18.2031 7.40625L16.9844 14.25H13.75V7.5C13.75 7.125 13.375 6.75 13 6.75C12.5781 6.75 12.25 7.125 12.25 7.5V14.25H8.96875L7.70312 7.40625C7.65625 6.98438 7.23438 6.70312 6.85938 6.79688C6.4375 6.84375 6.15625 7.21875 6.25 7.64062L7.42188 14.25H5.5C4.32812 11.4375 3.25 6.84375 3.25 6C3.20312 5.15625 3.71875 4.40625 4.46875 3.98438C4.79688 3.84375 5.125 3.75 5.45312 3.75C5.96875 3.75 6.4375 3.9375 6.8125 4.21875L8.64062 5.625L10 3.79688C10.7031 2.8125 11.7812 2.25 13 2.25C14.1719 2.25 15.25 2.8125 15.9531 3.79688L17.3125 5.625L19.1406 4.21875C19.5156 3.9375 19.9844 3.79688 20.5 3.75C21.7188 3.75 22.75 4.78125 22.75 6C22.7031 6.84375 21.625 11.4375 20.4531 14.25Z" fill="white"/>
</svg>
