<svg width="28" height="24" viewBox="0 0 28 24" fill="none" xmlns="http://www.w3.org/2000/svg">
<path d="M12.125 18.75H21.875C22.4844 18.75 23 18.2812 23 17.625C23 17.0156 22.4844 16.5 21.875 16.5H12.125C11.4688 16.5 11 17.0156 11 17.625C11 18.2812 11.4688 18.75 12.125 18.75ZM15.5 9.09375V12H18.4062C18.5938 12 18.7812 11.9531 18.9219 11.8125L24.7812 5.90625L21.5938 2.71875L15.6875 8.57812C15.5469 8.71875 15.5 8.90625 15.5 9.09375ZM27.125 3.5625C27.5938 3.09375 27.5938 2.34375 27.125 1.875L25.625 0.375C25.3906 0.140625 25.1094 0 24.7812 0C24.5 0 24.1719 0.140625 23.9375 0.375L22.6719 1.64062L25.8594 4.82812L27.125 3.5625ZM12.125 13.5H12.875C13.4844 13.5 14 13.0312 14 12.375C14 11.7656 13.4844 11.25 12.875 11.25H12.125C11.4688 11.25 11 11.7656 11 12.375C11 13.0312 11.4688 13.5 12.125 13.5ZM7.25 20.25C7.76562 20.25 8.1875 19.875 8.1875 19.3125V18.8438C9.21875 18.6094 9.96875 17.9531 10.1094 17.0156C10.4844 14.9531 8.51562 14.4375 7.48438 14.1094L7.25 14.0625C6.125 13.7344 6.17188 13.5938 6.17188 13.3594C6.26562 12.9844 6.96875 12.9375 7.57812 13.0312C7.85938 13.0781 8.14062 13.125 8.42188 13.2188C8.89062 13.4062 9.45312 13.1719 9.59375 12.6562C9.78125 12.1875 9.5 11.625 9.03125 11.4844C8.70312 11.3438 8.42188 11.2969 8.1875 11.2031V10.6875C8.1875 10.1719 7.76562 9.75 7.20312 9.75C6.6875 9.75 6.3125 10.1719 6.3125 10.6875V11.2031C5.23438 11.4375 4.48438 12.0469 4.34375 13.0312C4.01562 15.0469 5.89062 15.6094 6.6875 15.8438L6.96875 15.9375C8.32812 16.3125 8.32812 16.4531 8.28125 16.6875C8.1875 17.0625 7.48438 17.1094 6.875 17.0156C6.54688 16.9688 6.125 16.8281 5.75 16.6875L5.5625 16.6406C5.04688 16.4531 4.53125 16.6875 4.34375 17.2031C4.20312 17.6719 4.4375 18.2344 4.90625 18.375L5.09375 18.4688C5.46875 18.6094 5.89062 18.75 6.3125 18.7969V19.3125C6.3125 19.8281 6.6875 20.25 7.25 20.25ZM26.2344 6.5625L24.5469 8.29688C24.9219 8.29688 25.25 8.625 25.25 9V21C25.25 21.4219 24.875 21.75 24.5 21.75H3.5C3.07812 21.75 2.75 21.4219 2.75 21V9C2.75 8.625 3.07812 8.25 3.5 8.25H14.1406C14.2344 7.96875 14.4219 7.73438 14.6562 7.5L16.1562 6H3.5C1.8125 6 0.5 7.3125 0.5 9V21C0.5 22.6875 1.8125 24 3.5 24H24.5C26.1406 24 27.5 22.6875 27.5 21V9C27.5 8.01562 26.9844 7.125 26.2344 6.5625Z" fill="#50CCA1"/>
</svg>
