<svg width="99" height="25" viewBox="0 0 99 25" fill="none" xmlns="http://www.w3.org/2000/svg">
<rect y="0.5" width="99" height="24" rx="12" fill="#CC8C50" fill-opacity="0.1"/>
<g clip-path="url(#clip0_1169_1618)">
<path d="M13 3.5C8.03807 3.5 4 7.53595 4 12.5014C4 17.4641 8.03807 21.5 13 21.5C17.9619 21.5 22 17.4641 22 12.5014C22 7.53595 17.9619 3.5 13 3.5ZM13 19.4656C11.6211 19.4656 10.2833 19.0598 9.13737 18.2921L8.84679 18.0974L10.4861 16.4578C10.1983 16.1644 10.0119 15.8711 9.90222 15.6709C9.6884 15.2733 9.576 14.8813 9.52117 14.5413L7.40755 16.6552L7.21291 16.3646C6.44532 15.2185 6.0396 13.8832 6.0396 12.5014C6.0396 8.66283 9.16205 5.53717 13.0027 5.53717C14.3844 5.53717 15.7195 5.94296 16.8654 6.71066L17.156 6.90533L16.4843 7.57708L16.52 8.04318C16.5446 8.39414 16.5254 8.89315 16.339 9.44151L16.5391 9.47167L16.5693 9.93503C16.5775 10.0804 16.5803 10.2257 16.5693 10.371L18.5924 8.34753L18.7871 8.63816C19.5547 9.78698 19.9604 11.1195 19.9604 12.5014C19.9631 16.3399 16.838 19.4656 13 19.4656Z" fill="#C48235"/>
<path d="M15.6209 9.43604C14.5628 9.40314 13.521 9.87199 13.0221 10.8124C12.5204 9.85828 11.4211 9.36475 10.3328 9.43878C9.98738 8.76155 9.99286 8.13642 10.0121 7.86772C11.4814 7.64015 12.8905 8.48737 12.9755 9.97892C13.0577 8.4956 14.4531 7.64563 15.939 7.86772C15.9773 8.39415 15.8732 8.94251 15.6209 9.43604Z" fill="#C48235"/>
<path d="M15.6676 11.5447C14.6066 11.4707 13.4909 11.945 12.9783 12.9156C12.493 11.9971 11.4129 11.4762 10.3767 11.5392C10.0367 10.862 10.0422 10.2396 10.0614 9.97366C11.4568 9.70771 12.9371 10.5686 13.0249 12.0849C13.0989 10.5988 14.56 9.72142 15.9911 9.97366C16.024 10.5138 15.9116 11.0622 15.6676 11.5447Z" fill="#C48235"/>
<path d="M15.6237 13.6447C14.6313 13.5816 13.5293 14.0669 13.0248 15.0211C12.5149 14.0532 11.4431 13.6036 10.3328 13.6474C9.98738 12.9702 9.9956 12.3478 10.0148 12.0791C11.4814 11.8488 12.907 12.707 12.9782 14.1876C13.0468 12.877 14.253 11.8378 15.9417 12.0791C15.9581 12.3478 15.9664 12.9702 15.6237 13.6447Z" fill="#C48235"/>
<path d="M13.0274 17.3816H13.0246C13.0219 17.3816 13.0219 17.3816 13.0191 17.3816C11.3277 17.3816 9.93506 15.9229 10.0612 14.1846C11.473 13.9159 12.9396 14.7988 13.0246 16.2931C13.0931 14.9441 14.3487 13.9434 15.9908 14.1846C16.095 15.9449 14.7352 17.3679 13.0274 17.3816Z" fill="#C48235"/>
</g>
<path d="M29.66 17.168C31.484 17.168 32.78 16.208 32.78 14.588C32.78 12.812 31.352 12.368 30.08 11.984C28.772 11.588 28.568 11.324 28.568 10.94C28.568 10.604 28.868 10.304 29.468 10.304C30.236 10.304 30.632 10.676 30.92 11.276L32.54 10.328C31.928 9.092 30.848 8.432 29.468 8.432C28.016 8.432 26.648 9.368 26.648 10.988C26.648 12.596 27.872 13.196 29.12 13.544C30.38 13.892 30.86 14.096 30.86 14.612C30.86 14.936 30.632 15.296 29.72 15.296C28.772 15.296 28.256 14.828 27.956 14.132L26.3 15.092C26.768 16.328 27.896 17.168 29.66 17.168ZM38.2113 11V11.564C37.8153 11.108 37.2273 10.832 36.4233 10.832C34.8513 10.832 33.5553 12.212 33.5553 14C33.5553 15.788 34.8513 17.168 36.4233 17.168C37.2273 17.168 37.8153 16.892 38.2113 16.436V17H40.0113V11H38.2113ZM36.7833 15.464C35.9553 15.464 35.3553 14.9 35.3553 14C35.3553 13.1 35.9553 12.536 36.7833 12.536C37.6113 12.536 38.2113 13.1 38.2113 14C38.2113 14.9 37.6113 15.464 36.7833 15.464ZM44.8479 10.832C44.0559 10.832 43.4559 11.12 43.1319 11.564V11H41.3319V17H43.1319V13.724C43.1319 12.872 43.5879 12.488 44.2479 12.488C44.8239 12.488 45.2919 12.836 45.2919 13.58V17H47.0919V13.316C47.0919 11.696 46.0599 10.832 44.8479 10.832ZM50.032 12.752C50.032 12.536 50.224 12.416 50.536 12.416C50.932 12.416 51.172 12.632 51.34 12.944L52.876 12.116C52.372 11.264 51.508 10.832 50.536 10.832C49.288 10.832 48.184 11.492 48.184 12.8C48.184 14.876 51.136 14.528 51.136 15.188C51.136 15.428 50.92 15.56 50.488 15.56C49.96 15.56 49.624 15.308 49.468 14.852L47.908 15.74C48.376 16.712 49.288 17.168 50.488 17.168C51.784 17.168 52.984 16.58 52.984 15.2C52.984 12.98 50.032 13.436 50.032 12.752ZM65.3173 12.32H61.1053V14H63.3493C63.0493 14.804 62.3173 15.296 61.2013 15.296C59.5693 15.296 58.5613 14.252 58.5613 12.824C58.5613 11.348 59.6173 10.304 61.0333 10.304C61.9813 10.304 62.7373 10.736 63.0853 11.288L64.7173 10.352C64.0093 9.224 62.6533 8.432 61.0453 8.432C58.5733 8.432 56.6413 10.376 56.6413 12.812C56.6413 15.224 58.5373 17.168 61.1773 17.168C63.5293 17.168 65.3173 15.608 65.3173 13.04V12.32ZM66.3397 17H68.1397V8.24H66.3397V17ZM73.3329 11V14.276C73.3329 15.128 72.8769 15.512 72.2169 15.512C71.6409 15.512 71.1729 15.164 71.1729 14.42V11H69.3729V14.684C69.3729 16.304 70.4049 17.168 71.6169 17.168C72.4089 17.168 73.0089 16.88 73.3329 16.436V17H75.1329V11H73.3329ZM79.969 12.728V11H78.733V9.32L76.933 9.86V11H75.973V12.728H76.933V14.852C76.933 16.532 77.617 17.24 79.969 17V15.368C79.177 15.416 78.733 15.368 78.733 14.852V12.728H79.969ZM82.4789 14.72H86.7389C86.7869 14.492 86.8109 14.252 86.8109 14C86.8109 12.188 85.5149 10.832 83.7629 10.832C81.8669 10.832 80.5709 12.212 80.5709 14C80.5709 15.788 81.8429 17.168 83.8949 17.168C85.0349 17.168 85.9229 16.748 86.5109 15.932L85.0709 15.104C84.8309 15.368 84.4109 15.56 83.9189 15.56C83.2589 15.56 82.7069 15.344 82.4789 14.72ZM82.4429 13.376C82.6109 12.764 83.0669 12.428 83.7509 12.428C84.2909 12.428 84.8309 12.68 85.0229 13.376H82.4429ZM91.3479 10.832C90.5559 10.832 89.9559 11.12 89.6319 11.564V11H87.8319V17H89.6319V13.724C89.6319 12.872 90.0879 12.488 90.7479 12.488C91.3239 12.488 91.7919 12.836 91.7919 13.58V17H93.5919V13.316C93.5919 11.696 92.5599 10.832 91.3479 10.832Z" fill="#C48235"/>
<defs>
<clipPath id="clip0_1169_1618">
<rect width="18" height="18" fill="white" transform="translate(4 3.5)"/>
</clipPath>
</defs>
</svg>
