<svg width="89" height="21" viewBox="0 0 89 21" fill="none" xmlns="http://www.w3.org/2000/svg">
<rect width="89" height="21" rx="10.5" fill="#50CCA1" fill-opacity="0.1"/>
<path d="M8.24012 16.0093C8.74771 16.2323 9.2976 16.3885 9.82634 16.4777C9.93209 16.5 10.0167 16.5 10.1013 16.5C9.44565 13.868 8.26127 11.3699 6.65389 9.22862C6.54815 9.07249 6.5693 8.87175 6.69619 8.73792C6.84424 8.62639 7.03459 8.6487 7.16149 8.78253C8.85346 11.013 10.0801 13.6227 10.7569 16.3662C11.053 16.2546 11.2645 16.0539 11.4126 15.8755C12.5969 14.4257 11.6241 10.9461 11.6241 10.9015C11.1588 9.25093 10.1647 7.82342 8.87461 6.77509C7.49988 5.65985 5.89251 5.16914 4.28513 4.5C4.01019 7.10967 3.60834 10.4331 4.87732 12.842C5.63871 14.2472 6.82309 15.3625 8.24012 16.0093Z" fill="#50CCA1"/>
<path d="M13.053 11.9181C13.1191 12.3884 13.1852 13.0297 13.7579 13.3504C13.7799 13.3717 13.8019 13.3717 13.8239 13.3931C13.9341 11.5546 14.705 9.73753 16.0046 8.3266C16.1368 8.19834 16.3571 8.17696 16.5113 8.28385C16.6655 8.39074 16.6875 8.60451 16.5553 8.75416C15.3438 10.0796 14.639 11.7684 14.5508 13.5C14.683 13.4786 14.8152 13.4572 14.9694 13.4145C15.7623 13.158 16.4892 12.6876 17.2161 12.0036C17.3043 11.9181 17.3924 11.8325 17.4805 11.747C19.3968 9.71615 18.9563 4.5 18.9563 4.5C18.9563 4.5 17.7228 5.01306 17.6126 5.05582C16.0707 5.71853 14.1764 6.59501 13.4935 8.15558C13.031 9.20309 12.8988 10.443 13.075 11.7898C13.053 11.8325 13.053 11.8753 13.053 11.9181Z" fill="#50CCA1"/>
<path d="M25.736 15H28.184L30.92 6.6H28.82L26.96 12.78L25.1 6.6H23L25.736 15ZM35.727 6.54H33.567L32.607 8.22H34.335L35.727 6.54ZM32.475 12.72H36.735C36.783 12.492 36.807 12.252 36.807 12C36.807 10.188 35.511 8.832 33.759 8.832C31.863 8.832 30.567 10.212 30.567 12C30.567 13.788 31.839 15.168 33.891 15.168C35.031 15.168 35.919 14.748 36.507 13.932L35.067 13.104C34.827 13.368 34.407 13.56 33.915 13.56C33.255 13.56 32.703 13.344 32.475 12.72ZM32.439 11.376C32.607 10.764 33.063 10.428 33.747 10.428C34.287 10.428 34.827 10.68 35.019 11.376H32.439ZM42.1734 9V9.612C41.7774 9.12 41.2014 8.832 40.4214 8.832C38.7174 8.832 37.4694 10.224 37.4694 11.88C37.4694 13.536 38.7174 14.928 40.4214 14.928C41.2014 14.928 41.7774 14.64 42.1734 14.148V14.7C42.1734 15.552 41.6574 15.984 40.8174 15.984C40.0254 15.984 39.6774 15.648 39.4494 15.228L37.9134 16.116C38.4654 17.1 39.5094 17.568 40.7574 17.568C42.3534 17.568 43.9254 16.716 43.9254 14.7V9H42.1734ZM40.7214 13.272C39.8694 13.272 39.2694 12.708 39.2694 11.88C39.2694 11.052 39.8694 10.488 40.7214 10.488C41.5734 10.488 42.1734 11.052 42.1734 11.88C42.1734 12.708 41.5734 13.272 40.7214 13.272ZM50.1059 6.54H47.9459L46.9859 8.22H48.7139L50.1059 6.54ZM46.8539 12.72H51.1139C51.1619 12.492 51.1859 12.252 51.1859 12C51.1859 10.188 49.8899 8.832 48.1379 8.832C46.2419 8.832 44.9459 10.212 44.9459 12C44.9459 13.788 46.2179 15.168 48.2699 15.168C49.4099 15.168 50.2979 14.748 50.8859 13.932L49.4459 13.104C49.2059 13.368 48.7859 13.56 48.2939 13.56C47.6339 13.56 47.0819 13.344 46.8539 12.72ZM46.8179 11.376C46.9859 10.764 47.4419 10.428 48.1259 10.428C48.6659 10.428 49.2059 10.68 49.3979 11.376H46.8179ZM55.5471 10.728V9H54.3111V7.32L52.5111 7.86V9H51.5511V10.728H52.5111V12.852C52.5111 14.532 53.1951 15.24 55.5471 15V13.368C54.7551 13.416 54.3111 13.368 54.3111 12.852V10.728H55.5471ZM60.8051 9V9.564C60.4091 9.108 59.8211 8.832 59.0171 8.832C57.4451 8.832 56.1491 10.212 56.1491 12C56.1491 13.788 57.4451 15.168 59.0171 15.168C59.8211 15.168 60.4091 14.892 60.8051 14.436V15H62.6051V9H60.8051ZM59.3771 13.464C58.5491 13.464 57.9491 12.9 57.9491 12C57.9491 11.1 58.5491 10.536 59.3771 10.536C60.2051 10.536 60.8051 11.1 60.8051 12C60.8051 12.9 60.2051 13.464 59.3771 13.464ZM65.7256 10.068V9H63.9256V15H65.7256V12.288C65.7256 11.1 66.7816 10.8 67.5256 10.92V8.88C66.7696 8.88 65.9656 9.264 65.7256 10.068ZM69.267 8.472C69.855 8.472 70.347 7.98 70.347 7.392C70.347 6.804 69.855 6.312 69.267 6.312C68.679 6.312 68.187 6.804 68.187 7.392C68.187 7.98 68.679 8.472 69.267 8.472ZM68.367 15H70.167V9H68.367V15ZM73.0922 12.72H77.3522C77.4002 12.492 77.4242 12.252 77.4242 12C77.4242 10.188 76.1282 8.832 74.3762 8.832C72.4802 8.832 71.1842 10.212 71.1842 12C71.1842 13.788 72.4562 15.168 74.5082 15.168C75.6482 15.168 76.5362 14.748 77.1242 13.932L75.6842 13.104C75.4442 13.368 75.0242 13.56 74.5322 13.56C73.8722 13.56 73.3202 13.344 73.0922 12.72ZM73.0562 11.376C73.2242 10.764 73.6802 10.428 74.3642 10.428C74.9042 10.428 75.4442 10.68 75.6362 11.376H73.0562ZM81.9612 8.832C81.1692 8.832 80.5692 9.12 80.2452 9.564V9H78.4452V15H80.2452V11.724C80.2452 10.872 80.7012 10.488 81.3612 10.488C81.9372 10.488 82.4052 10.836 82.4052 11.58V15H84.2052V11.316C84.2052 9.696 83.1732 8.832 81.9612 8.832Z" fill="#50CCA1"/>
</svg>
